<?xml version="1.0" encoding="UTF-8"?>
<svg version="1.1" xmlns="http://www.w3.org/2000/svg" width="469" height="493">
<path d="M0 0 C154.77 0 309.54 0 469 0 C469 162.69 469 325.38 469 493 C314.23 493 159.46 493 0 493 C0 330.31 0 167.62 0 0 Z " fill="#1C244A" transform="translate(0,0)"/>
<path d="M0 0 C0.33 0 0.66 0 1 0 C1.09796875 0.98097656 1.1959375 1.96195313 1.296875 2.97265625 C4.55789321 33.36701825 18.29329371 61.99718978 37 86 C37.73734375 86.94746094 38.4746875 87.89492188 39.234375 88.87109375 C44.83683602 95.87417002 50.85328623 102.47640743 57 109 C57.72832031 109.78246094 58.45664062 110.56492187 59.20703125 111.37109375 C85.55370549 138.79314245 122.27414287 155.73162929 158 167 C157.95359375 166.10539063 157.9071875 165.21078125 157.859375 164.2890625 C157.45396938 150.70797416 161.19760281 142.61919535 170.08203125 132.66796875 C187.27900002 114.55839135 210.24242361 103.50241254 232.58984375 93.12744141 C242.42413954 88.52707897 252.00603858 83.53486751 261.42529297 78.13769531 C264.87598768 76.16562627 268.31938125 74.34044765 271.9375 72.6875 C287.68959784 64.9575498 303.44372717 52.68671293 312.0859375 37.3359375 C314.55133824 34.32714232 316.23437147 34.3838244 320 34 C320.33 33.34 320.66 32.68 321 32 C323.31 32.99 325.62 33.98 328 35 C319.60101189 64.48486878 283.37551474 84.1152518 258.4765625 98.05078125 C252.30855968 101.42744922 245.99019351 104.44642327 239.6171875 107.41308594 C231.86630638 111.02296544 224.31707315 114.94813221 216.80273438 119.02441406 C215.17012135 119.90793541 213.53074322 120.77892759 211.890625 121.6484375 C197.51736722 129.32229547 184.05304409 138.09940394 175 152 C174.443125 152.804375 173.88625 153.60875 173.3125 154.4375 C168.56593785 163.70459754 167.30844952 173.17897931 169.84375 183.40234375 C174.8978363 197.76209571 184.68911349 208.71258674 197.4375 216.6875 C198.14970703 217.14705078 198.86191406 217.60660156 199.59570312 218.08007812 C204.26120985 221.05057787 209.01694349 223.60116671 214 226 C214.06489359 222.47726933 214.04016059 218.96047603 214 215.4375 C214.01933594 214.44685547 214.03867188 213.45621094 214.05859375 212.43554688 C213.98718274 206.73068674 213.98718274 206.73068674 211.25561523 201.90771484 C209.84908346 200.72528221 208.40772864 199.58291395 206.93310547 198.48657227 C204.45210172 196.57866221 203.31822694 194.59214354 202.0625 191.75 C201.68222656 190.91984375 201.30195313 190.0896875 200.91015625 189.234375 C198.59356501 183.54729265 197.91583357 178.48482068 199.765625 172.5390625 C203.324924 164.59330348 209.82787987 156.47267922 218 153 C220.8053594 163.09929385 221.19870349 173.23389536 221.55859375 183.671875 C221.60084579 184.88147888 221.64309784 186.09108276 221.68663025 187.33734131 C222.14230692 201.64081494 222.10961001 215.94100118 222.0625 230.25 C222.05687313 232.96484227 222.05283521 235.67968617 222.04882812 238.39453125 C222.03800695 244.92970833 222.02143644 251.46484954 222 258 C215.9723822 252.21801036 214.84314692 247.89559559 214.375 239.625 C214.26285156 237.75714844 214.26285156 237.75714844 214.1484375 235.8515625 C214.09945312 234.91054688 214.05046875 233.96953125 214 233 C212.85402344 232.76410156 211.70804688 232.52820313 210.52734375 232.28515625 C204.96117101 230.89514392 200.35093865 228.07972332 195.44335938 225.18945312 C190.3805303 222.34887593 185.88882254 220.36602143 180 221 C174.8690337 222.50474166 170.02159246 224.5660732 165.125 226.6875 C163.70693771 227.28623423 162.28830888 227.88362829 160.86914062 228.47973633 C157.26158613 230.00194574 153.66601297 231.55056493 150.07287598 233.10644531 C148.09609059 233.95857823 146.11523139 234.80010316 144.13183594 235.63671875 C132.96548397 240.35397518 121.81112054 245.10675261 111.375 251.3125 C110.72337891 251.68463623 110.07175781 252.05677246 109.40039062 252.44018555 C106.07338874 254.54923398 105.0670641 255.76126217 103.98828125 259.6015625 C104.00104696 263.30361782 104.66309459 264.88169007 107.2421875 267.53125 C114.85326912 273.89073153 123.6911627 276.93730471 133 280 C133.804375 280.28746094 134.60875 280.57492187 135.4375 280.87109375 C141.82657367 283.13780555 148.36474473 284.64694048 155 286 C155.78084961 286.16145508 156.56169922 286.32291016 157.36621094 286.48925781 C183.05222776 291.68517207 208.63935896 292.18254649 234.75 292.25 C235.90943115 292.25535767 237.0688623 292.26071533 238.26342773 292.26623535 C250.73814905 292.30989026 263.13716325 292.07894838 275.578125 291.109375 C277.08327667 290.99314789 277.08327667 290.99314789 278.61883545 290.87457275 C284.12089026 290.39820688 289.45241362 289.62021308 294.85050964 288.44999695 C297.90033987 287.81151337 300.97115702 287.44213861 304.0625 287.0625 C308.79851118 286.40627504 313.02446368 285.50699422 317.48828125 283.83203125 C320.13272617 282.95603317 322.79498518 282.36231918 325.51464844 281.76928711 C332.29745306 280.25633677 338.40132561 278.17615465 344.625 275.0625 C345.2754126 274.73870361 345.9258252 274.41490723 346.59594727 274.08129883 C351.19264734 271.67702717 356.61427367 268.77145265 359 264 C359.53936768 259.19074735 359.53936768 259.19074735 357.49609375 255.0234375 C354.17497369 252.33119933 350.63886622 250.73139087 346.75 249 C345.28601182 248.33431443 343.82246818 247.66765036 342.359375 247 C341.27366211 246.50826294 341.27366211 246.50826294 340.16601562 246.0065918 C338.02845 245.0132213 335.92810906 243.96475386 333.828125 242.89453125 C330.61681012 241.27306231 327.38202244 239.92427682 324 238.6875 C318.92201995 236.77738019 313.95490726 234.70310374 309 232.5 C303.01837727 229.84293185 296.98580978 227.41408869 290.859375 225.10546875 C288.46670599 224.18043415 286.14231498 223.19508944 283.8125 222.125 C276.36490269 218.72439896 268.63987297 215.93397495 261 213 C261.01160156 214.30453125 261.02320313 215.6090625 261.03515625 216.953125 C261.2297793 246.40325906 261.2297793 246.40325906 255 256 C254.01 256.33 253.02 256.66 252 257 C250.38281071 255.38281071 250.85012523 253.60843073 250.82591248 251.3711853 C250.81297653 250.37022827 250.80004059 249.36927124 250.78671265 248.33798218 C250.77773956 247.23048615 250.76876648 246.12299011 250.75952148 244.98193359 C250.74652512 243.82260315 250.73352875 242.66327271 250.72013855 241.46881104 C250.60827519 230.76041257 250.54756802 220.05127424 250.50337124 209.34238243 C250.4701559 201.42694031 250.4106653 193.51264553 250.31586021 185.59769571 C250.25145693 180.03244721 250.21782327 174.46751059 250.20662171 168.90190375 C250.19906975 165.57827705 250.17387846 162.256351 250.12359428 158.93305588 C250.07021882 155.2192446 250.06711902 151.50854635 250.07592773 147.79443359 C250.04873657 146.69908295 250.02154541 145.6037323 249.99353027 144.47518921 C250.08269094 137.18126203 250.08269094 137.18126203 252.77272224 133.71718216 C257.98639828 129 257.98639828 129 261 129 C261.860695 133.63618062 262.30547795 138.23510472 262.5625 142.9375 C262.6049585 143.69659668 262.64741699 144.45569336 262.69116211 145.23779297 C263.20113859 155.48452363 263.08914606 165.74408895 263 176 C284.00485911 173.92809213 305.1645912 169.21037088 325 162 C325.67401855 161.75733398 326.34803711 161.51466797 327.04248047 161.26464844 C346.41425708 154.14274074 365.35590041 144.20799647 382 132 C382.83313721 131.39575195 382.83313721 131.39575195 383.68310547 130.77929688 C391.97134243 124.72794886 399.58140139 118.08138958 407 111 C407.85335938 110.19949219 408.70671875 109.39898437 409.5859375 108.57421875 C416.47258312 101.93740412 422.2421157 94.60520551 428 87 C428.5878125 86.23429687 429.175625 85.46859375 429.78125 84.6796875 C431.21038052 82.80205325 432.61121335 80.9076311 434 79 C434.56203125 78.23558594 435.1240625 77.47117187 435.703125 76.68359375 C440.00805257 70.70348785 443.61702549 64.54041739 447 58 C447.49371094 57.07574219 447.98742187 56.15148437 448.49609375 55.19921875 C456.68128767 39.48789847 460.98622789 23.17361016 465 6 C465.66 6 466.32 6 467 6 C467 101.04 467 196.08 467 294 C312.23 294 157.46 294 -2 294 C-2.020625 247.160625 -2.04125 200.32125 -2.0625 152.0625 C-2.071604 137.24480713 -2.08070801 122.42711426 -2.09008789 107.16040039 C-2.09460449 89.13757324 -2.09460449 89.13757324 -2.09544373 80.71409607 C-2.09637955 74.80080268 -2.10006154 68.88751864 -2.10557556 62.97422791 C-2.11191745 56.16312891 -2.11484147 49.35203895 -2.11344495 42.54093697 C-2.11283958 39.05287302 -2.11383411 35.56482928 -2.11921513 32.07676899 C-2.12413855 28.35182672 -2.12300862 24.62693609 -2.12025452 20.9019928 C-2.12316718 19.80018897 -2.12607985 18.69838514 -2.12908077 17.56319332 C-2.1270899 16.57160528 -2.12509903 15.58001724 -2.12304783 14.55838108 C-2.12342755 13.69603621 -2.12380727 12.83369134 -2.1241985 11.94521481 C-2 10 -2 10 -1 9 C-0.76807135 7.48530552 -0.58784762 5.96245438 -0.4375 4.4375 C-0.35371094 3.61121094 -0.26992188 2.78492188 -0.18359375 1.93359375 C-0.12300781 1.29550781 -0.06242188 0.65742188 0 0 Z " fill="#1D244A" transform="translate(2,199)"/>
<path d="M0 0 C1.62808594 0.68642578 1.62808594 0.68642578 3.2890625 1.38671875 C15.56312961 7.05764849 28.50362559 16.99634171 34.1875 29.6328125 C35.46521833 33.35539571 36.35533946 37.17531465 37.28149414 40.99853516 C38.72983865 46.66413873 41.00236357 51.73052869 43.71411133 56.90063477 C45.68129956 60.76688118 46.51348516 63.66390311 46 68 C40.75137719 72.88664882 30.03794259 74.88735767 22.98046875 74.6875 C19.47922656 73.47207865 18.33791716 70.33267879 16.5546875 67.2578125 C13.85416825 63.33595289 10.49729206 62.19265204 6 61 C3.29321116 60.52169193 0.58774461 60.06534035 -2.125 59.625 C-8.53641319 58.55692153 -12.98113188 57.31269175 -17 52 C-18.55358814 49.71133819 -20.04962783 47.39544404 -21.5234375 45.0546875 C-24.26389041 41.24125302 -27.55992576 39.48002475 -32 38 C-36.73039335 37.61226284 -39.05546399 37.51882128 -43.3125 39.6875 C-46.6439488 42.55409548 -48.67502717 44.60332539 -49.28125 49.07421875 C-49.5914079 56.68601056 -47.10035214 62.36185562 -42 68 C-39.83095923 69.45554052 -37.80327688 70.68531115 -35.5 71.875 C-34.85272949 72.21378174 -34.20545898 72.55256348 -33.53857422 72.90161133 C-20.44645442 79.50305505 -6.09561035 83.37923857 7.94873047 87.40722656 C38.27247053 96.17014502 71.41234124 110.44784071 87.64453125 139.34375 C94.77884362 153.32453506 95.38574089 170.79334018 91.16796875 185.921875 C76.99007433 223.28702818 38.75251782 241.06361224 4.66821289 256.86450195 C-4.06089395 260.91862991 -12.55448462 265.3875684 -21 270 C-21.81033691 270.44102051 -22.62067383 270.88204102 -23.45556641 271.33642578 C-41.64146133 281.31188702 -62.26399425 293.60269018 -70.0859375 313.8046875 C-71.10878752 317.38029142 -71.41500817 320.66514441 -71.625 324.375 C-71.69976562 325.62023437 -71.77453125 326.86546875 -71.8515625 328.1484375 C-71.90054688 329.08945312 -71.94953125 330.03046875 -72 331 C-102.6090972 324.91620428 -132.03905355 308.55928087 -156 289 C-157.33804688 287.96552734 -157.33804688 287.96552734 -158.703125 286.91015625 C-171.89279529 276.55510809 -183.01229043 264.40769189 -193 251 C-193.87205078 249.87851562 -193.87205078 249.87851562 -194.76171875 248.734375 C-198.89162942 243.40126201 -202.46711382 237.74094004 -206 232 C-206.85078125 230.64455078 -206.85078125 230.64455078 -207.71875 229.26171875 C-212.6474835 221.16291348 -216.45202472 212.67453453 -220.15576172 203.96777344 C-220.83341302 202.38828544 -221.53917436 200.82087102 -222.25390625 199.2578125 C-227.08879518 188.29873092 -229.05856908 175.86202962 -230 164 C-230.33 163.67 -230.66 163.34 -231 163 C-231.50533733 159.96797602 -231.52203103 157.86507999 -229.90625 155.1875 C-224.72133304 148.78909183 -218.03315306 145.72184904 -210.375 143.0625 C-209.64772705 142.80944092 -208.9204541 142.55638184 -208.17114258 142.2956543 C-193.28726425 137.2820548 -177.99250352 134.45183068 -162.46166992 132.35961914 C-159.78046086 131.96792808 -157.12058232 131.49178685 -154.453125 131.015625 C-147.50234655 129.84307811 -140.52049203 129.21376579 -133.50219727 128.62231445 C-131.33233826 128.43917439 -129.16324278 128.24851612 -126.99414062 128.05664062 C-111.12335585 126.67133557 -95.37075536 125.84296708 -79.4375 125.9375 C-77.92513173 125.94253744 -76.41276179 125.94709628 -74.90039062 125.95117188 C-71.26689116 125.96197142 -67.63345717 125.97910513 -64 126 C-64 126.66 -64 127.32 -64 128 C-68.47875072 128.62800321 -72.95807662 129.25181431 -77.4375 129.875 C-78.67822266 130.04902344 -79.91894531 130.22304687 -81.19726562 130.40234375 C-87.9143946 131.33479867 -94.62946965 132.19919399 -101.3671875 132.96484375 C-131.44590787 136.42162823 -161.61086519 141.76128774 -190.4375 151.125 C-191.89410034 151.59365479 -191.89410034 151.59365479 -193.38012695 152.07177734 C-199.01665625 153.99664181 -203.33329448 156.28974444 -208 160 C-207.6358915 163.66217234 -207.6358915 163.66217234 -205.3828125 166.40625 C-192.94800434 172.4300325 -179.10645012 175.07787588 -165.5234375 177.10009766 C-160.08890696 177.91109304 -160.08890696 177.91109304 -159 179 C-155.98513315 179.41373356 -152.98253977 179.76839427 -149.95703125 180.0859375 C-149.01840744 180.18748138 -148.07978363 180.28902527 -147.11271667 180.39364624 C-144.01322413 180.72650001 -140.91298774 181.0515542 -137.8125 181.375 C-136.22344849 181.54207458 -136.22344849 181.54207458 -134.60229492 181.71252441 C-107.66834153 184.53511497 -80.78203386 186.99544834 -53.70092773 187.6550293 C-42.74277477 187.93832308 -31.89509827 188.82246052 -21 190 C-21.10546143 189.26289795 -21.21092285 188.5257959 -21.31958008 187.76635742 C-23.2989302 173.86150338 -25.19299296 159.9592741 -26.75 146 C-26.94106323 144.30266724 -26.94106323 144.30266724 -27.13598633 142.57104492 C-27.6322288 138.01862016 -28.06826402 133.58403269 -28 129 C-20.49410283 130.53620165 -13.24987915 132.66151677 -5.9375 134.9375 C-4.80505859 135.28490234 -3.67261719 135.63230469 -2.50585938 135.99023438 C3.41105723 137.820102 9.21288857 139.79637238 15 142 C15.5720828 147.90797208 16.14168218 153.81617633 16.70898438 159.72460938 C16.90231225 161.73444077 17.09631785 163.7442071 17.29101562 165.75390625 C17.57079538 168.64306049 17.84813482 171.53244018 18.125 174.421875 C18.21249512 175.31992859 18.29999023 176.21798218 18.39013672 177.14324951 C18.51026123 178.4041037 18.51026123 178.4041037 18.6328125 179.69042969 C18.70387207 180.42767273 18.77493164 181.16491577 18.84814453 181.92449951 C18.99596844 183.94489824 19 185.97420067 19 188 C22.20962297 187.94778173 25.4166246 187.85263231 28.625 187.75 C29.52863281 187.73582031 30.43226563 187.72164062 31.36328125 187.70703125 C37.18821969 187.49444226 40.51159868 186.78308111 45 183 C49.49440906 178.02404711 50.41087952 173.09374564 50.24609375 166.55078125 C49.45667688 158.36841276 45.13928803 151.55707603 38.97265625 146.2578125 C25.63987086 136.87948372 8.59610501 132.30959732 -6.86010742 127.734375 C-14.47833512 125.47921999 -22.05610905 123.11518318 -29.60519409 120.63937378 C-31.49146265 120.02320507 -33.38153495 119.41871818 -35.27172852 118.81469727 C-56.39200447 111.84893722 -75.37091347 100.29703225 -86 80 C-90.00964568 70.83160286 -91.18050873 62.55260476 -91.1875 52.625 C-91.19974609 51.7175 -91.21199219 50.81 -91.22460938 49.875 C-91.2550595 35.78674082 -85.94618928 24.35557402 -76.234375 14.1875 C-69.22724078 7.32736859 -62.22175685 2.14997795 -52.9375 -1.1875 C-51.89625977 -1.57711914 -51.89625977 -1.57711914 -50.83398438 -1.97460938 C-34.64792256 -7.92333295 -15.73319247 -6.69986511 0 0 Z " fill="#F9F9FA" transform="translate(232,35)"/>
<path d="M0 0 C15.81337697 -0.27304277 31.28228884 0.27654011 47 2 C48.61604181 2.1737246 50.23209049 2.34738531 51.84814453 2.52099609 C56.44494171 3.01792202 61.03958621 3.53220983 65.63336182 4.05630493 C67.4744489 4.26554761 69.3158741 4.47184051 71.15765381 4.67489624 C82.7520207 5.96261442 93.74006403 7.93951949 105 11 C106.49691942 11.32693805 107.99613135 11.64418222 109.5 11.9375 C121.1259434 14.49877105 134.4069577 17.82395354 143.28515625 26.140625 C145.68110843 30.13569789 145.4924564 33.18828533 145.1875 37.75 C145.1369043 38.61109375 145.08630859 39.4721875 145.03417969 40.359375 C141.6866795 81.16699635 116.32424927 118.1430193 89 147 C88.1234375 147.93070313 87.246875 148.86140625 86.34375 149.8203125 C76.08839399 160.40745944 64.48057115 169.18066406 52 177 C51.41508789 177.36915527 50.83017578 177.73831055 50.22753906 178.11865234 C32.6515033 189.12082986 14.01957248 198.48121161 -6 204 C-7.31642663 204.45977254 -8.63141362 204.92367792 -9.9453125 205.390625 C-16.09406154 207.46429778 -22.4166039 208.82683945 -28.74658203 210.21704102 C-30.86645661 210.68561159 -32.98186198 211.17158517 -35.09765625 211.65820312 C-36.47892805 211.96461928 -37.86043184 212.26999196 -39.2421875 212.57421875 C-41.08079346 212.98546997 -41.08079346 212.98546997 -42.95654297 213.4050293 C-47 214 -47 214 -58 214 C-58.99 190.735 -58.99 190.735 -60 167 C-69.35060786 172.7000751 -69.35060786 172.7000751 -70.08229065 179.39744568 C-70.10823518 181.53500257 -70.08476034 183.67351786 -70.02172852 185.81030273 C-70.02304276 186.98175339 -70.02435699 188.15320404 -70.02571106 189.3601532 C-70.01945705 193.21951078 -69.94953331 197.07492243 -69.87890625 200.93359375 C-69.8621138 203.61408611 -69.84886318 206.29436197 -69.84031677 208.97486877 C-69.8124022 215.30060331 -69.73863186 221.62492908 -69.64817137 227.95004469 C-69.54738721 235.15422332 -69.49804441 242.35847115 -69.45291245 249.56317985 C-69.35897353 264.37617201 -69.2007889 279.1880614 -69 294 C-68.01 294 -67.02 294 -66 294 C-65.71125 293.113125 -65.4225 292.22625 -65.125 291.3125 C-64 288 -64 288 -62.96923828 285.76098633 C-61.75307409 282.29660325 -61.57162336 279.17696163 -61.3671875 275.51171875 C-61.32562531 274.80852005 -61.28406311 274.10532135 -61.24124146 273.3808136 C-61.11121388 271.15007936 -60.9929363 268.91890285 -60.875 266.6875 C-60.78853739 265.16857536 -60.70130594 263.64969429 -60.61328125 262.13085938 C-60.39995326 258.42103543 -60.19715295 254.71072274 -60 251 C-55.71550596 251.78751688 -51.88545263 253.14510655 -47.875 254.8125 C-43.3809442 256.64871621 -38.88849157 258.437257 -34.3125 260.0625 C-26.62866279 262.82912943 -19.15627437 266.00216971 -11.734375 269.40234375 C-10.78216064 269.83853027 -9.82994629 270.2747168 -8.84887695 270.72412109 C-6.95733113 271.593677 -5.06772362 272.46746628 -3.18041992 273.34619141 C1.39201006 275.45338156 5.9492746 277.3848817 10.69921875 279.05859375 C15.29140128 280.68581567 19.50044273 282.62987656 23.75 285 C24.35714844 285.33 24.96429688 285.66 25.58984375 286 C27.40008824 286.98810787 29.1998565 287.99363592 31 289 C31.65162109 289.35320312 32.30324219 289.70640625 32.97460938 290.0703125 C37.88726266 292.77452532 37.88726266 292.77452532 39 295 C39.60720869 299.42394906 39.26225397 301.549251 37 305.4375 C26.85362828 316.11282949 8.78757538 320.35352404 -4.9921875 323.2890625 C-8.02873808 323.95654322 -8.02873808 323.95654322 -11.015625 325.0234375 C-16.21203209 326.72383249 -21.59666105 327.26083698 -27 328 C-28.26714844 328.17660156 -29.53429687 328.35320312 -30.83984375 328.53515625 C-32.16390956 328.7120858 -33.4881268 328.88788623 -34.8125 329.0625 C-35.99457031 329.21847656 -37.17664063 329.37445313 -38.39453125 329.53515625 C-54.125255 331.2423524 -69.88365323 331.20184974 -85.6875 331.1875 C-86.91065918 331.18689575 -88.13381836 331.1862915 -89.39404297 331.18566895 C-122.09695973 331.14175372 -153.45250508 329.25117259 -185 320 C-186.12921875 319.67128906 -187.2584375 319.34257812 -188.421875 319.00390625 C-198.61987843 315.82033264 -210.09711281 311.5633114 -217 303 C-218.3125 299.375 -218.3125 299.375 -218 296 C-206.34664475 282.42624164 -185.94695503 276.29537571 -169.81494141 269.59277344 C-166.13812158 268.06367402 -162.48149074 266.48936229 -158.82421875 264.9140625 C-156.6127834 263.98246359 -154.40058245 263.05267931 -152.1875 262.125 C-151.1871875 261.68994141 -150.186875 261.25488281 -149.15625 260.80664062 C-143.1150637 258.3300015 -138.36527899 257.06021224 -132 259 C-128.63058626 260.41913646 -125.48411995 262.12405571 -122.3125 263.9375 C-114.93253191 268.08386692 -114.93253191 268.08386692 -107 271 C-106.90203125 271.90621094 -106.8040625 272.81242187 -106.703125 273.74609375 C-105.57379864 285.20262919 -105.57379864 285.20262919 -100 295 C-99.97410805 287.25261165 -99.95691312 279.50523489 -99.94506836 271.7578125 C-99.94069477 269.13604619 -99.93335506 266.51433885 -99.92456055 263.89257812 C-99.87861081 249.81574066 -99.95014768 235.75715985 -100.4375 221.6875 C-100.47596542 220.55270203 -100.51443085 219.41790405 -100.55406189 218.24871826 C-100.88226637 209.75104072 -101.65673796 201.39864809 -103 193 C-107.02709542 193 -110.20968144 197.34919737 -113 200 C-117.8124708 204.88613107 -121.03550999 210.23270357 -121.5 217.1875 C-121.24024422 223.2761754 -119.16000704 228.82711177 -116 234 C-113.68179519 235.80087689 -113.68179519 235.80087689 -111.1875 237.375 C-108.40864217 239.50055019 -107.16267082 241.0000067 -106.59570312 244.48535156 C-106.20488126 250.99978114 -106.50933845 257.49810542 -107 264 C-112.13919952 262.5396374 -116.27410197 260.26418569 -120.75 257.4375 C-121.45374756 256.99349854 -122.15749512 256.54949707 -122.88256836 256.09204102 C-135.98682807 247.63986112 -147.755149 235.893177 -152.45703125 220.64453125 C-154.93151631 208.59254285 -152.54876927 198.08226038 -145.875 187.9375 C-139.22847805 179.00933618 -131.34425487 171.97374652 -122 166 C-120.58847656 165.06414062 -120.58847656 165.06414062 -119.1484375 164.109375 C-110.57014485 158.59320707 -101.55484028 154.35686402 -92.31640625 150.08056641 C-67.08819411 138.31200961 -40.98203106 124.96238001 -19.9375 106.5 C-17 104 -17 104 -15 104 C-14.67 103.01 -14.34 102.02 -14 101 C-12.87202668 99.83784567 -11.73821932 98.68087313 -10.578125 97.55078125 C1.0932496 86.08163343 7.47969067 73.51683106 12 58 C12.59385498 57.93530518 13.18770996 57.87061035 13.79956055 57.80395508 C21.87201565 56.9164954 29.93741492 55.9728351 38 55 C38.7246344 54.91278687 39.4492688 54.82557373 40.19586182 54.73571777 C83.75579735 51.51901204 83.75579735 51.51901204 122 34 C121.8211833 32.06984644 121.8211833 32.06984644 121 30 C114.42483616 25.16697359 105.75047365 23.12109737 98 21 C97.32308105 20.80937988 96.64616211 20.61875977 95.94873047 20.42236328 C76.46213632 14.98434589 56.4565867 12.08592354 36.4296875 9.45703125 C35.43426941 9.3254512 34.43885132 9.19387115 33.41326904 9.05830383 C28.43577628 8.40183418 23.45711531 7.76011328 18.47460938 7.14282227 C16.63667097 6.90548038 14.79877815 6.66778516 12.9609375 6.4296875 C12.11433563 6.32981033 11.26773376 6.22993317 10.39547729 6.12702942 C2.94444184 5.14013889 2.94444184 5.14013889 0 2 C0 1.34 0 0.68 0 0 Z " fill="#F9F9FA" transform="translate(323,161)"/>
<path d="M0 0 C6.6 0 13.2 0 20 0 C20 8.25 20 16.5 20 25 C22.79791016 24.98259766 22.79791016 24.98259766 25.65234375 24.96484375 C28.08072817 24.95546775 30.50911367 24.94636735 32.9375 24.9375 C34.16919922 24.92912109 35.40089844 24.92074219 36.66992188 24.91210938 C37.83974609 24.90888672 39.00957031 24.90566406 40.21484375 24.90234375 C41.84087524 24.89448853 41.84087524 24.89448853 43.49975586 24.88647461 C46 25 46 25 47 26 C47.08651611 27.41570123 47.10704904 28.835595 47.09765625 30.25390625 C47.09515869 31.0229126 47.09266113 31.79191895 47.09008789 32.58422852 C47.08098389 33.56705811 47.07187988 34.5498877 47.0625 35.5625 C47.041875 38.676875 47.02125 41.79125 47 45 C38.09 45 29.18 45 20 45 C20 54.9 20 64.8 20 75 C13.4 75 6.8 75 0 75 C0 65.1 0 55.2 0 45 C-8.91 45 -17.82 45 -27 45 C-27 38.73 -27 32.46 -27 26 C-18.09 26 -9.18 26 0 26 C0 17.42 0 8.84 0 0 Z " fill="#F2F3F6" transform="translate(302,2)"/>
<path d="M0 0 C7.50589717 1.53620165 14.75012085 3.66151677 22.0625 5.9375 C23.19494141 6.28490234 24.32738281 6.63230469 25.49414062 6.99023438 C31.40776035 8.81908241 37.23369244 10.74852863 43 13 C43.4349307 17.6034022 43.86177895 22.20746366 44.28173828 26.81225586 C44.42512541 28.37267354 44.57056984 29.9329038 44.71826172 31.49291992 C45.61981444 41.03281965 46.22809903 50.40822455 46 60 C48.64 60 51.28 60 54 60 C54 60.66 54 61.32 54 62 C55.98 62.33 57.96 62.66 60 63 C60 63.33 60 63.66 60 64 C52.38338169 64.9436678 44.87990665 65.13269763 37.2109375 65.09765625 C36.02650055 65.0962413 34.8420636 65.09482635 33.62173462 65.09336853 C29.87279639 65.08781209 26.1239199 65.07526782 22.375 65.0625 C19.81901128 65.05747937 17.26302162 65.05291745 14.70703125 65.04882812 C8.47133342 65.03785696 2.23567113 65.02116276 -4 65 C-3.67 63.68 -3.34 62.36 -3 61 C-5.31 61 -7.62 61 -10 61 C-10 60.67 -10 60.34 -10 60 C-8.4792733 59.97246169 -6.95839326 59.95336625 -5.4375 59.9375 C-4.59058594 59.92589844 -3.74367187 59.91429687 -2.87109375 59.90234375 C0.47114144 60.01602522 3.6985313 60.48172247 7 61 C6.84180786 59.89434692 6.84180786 59.89434692 6.68041992 58.76635742 C4.7010698 44.86150338 2.80700704 30.9592741 1.25 17 C1.12262451 15.86844482 0.99524902 14.73688965 0.86401367 13.57104492 C0.3677712 9.01862016 -0.06826402 4.58403269 0 0 Z " fill="#F8F9FA" transform="translate(204,164)"/>
<path d="M0 0 C3.15245026 0.50845972 6.03572376 1.34437275 9.03041077 2.41691589 C14.14251355 4.13484514 19.26381874 5.13205281 24.57592773 6.0168457 C25.57694991 6.18579755 26.57797209 6.35474939 27.60932827 6.52882099 C38.62725113 8.33753789 49.67078153 9.67958682 60.78515625 10.73046875 C61.92219561 10.83825338 63.05923496 10.94603802 64.23073006 11.05708885 C98.18331993 14.15163741 132.27429801 13.57711871 166.33186018 13.36013687 C175.4863536 13.30286231 184.6408728 13.2764151 193.79550254 13.25161803 C212.53053861 13.20022759 231.2652392 13.11308128 250 13 C242.6297886 20.3702114 225.95127947 21.24259688 216.2734375 22.28125 C215.55450695 22.36249619 214.8355764 22.44374237 214.09486008 22.52745056 C197.40736885 24.38775641 180.76097958 24.63081858 163.98635864 24.51468658 C161.58081727 24.4997252 159.17535623 24.49255908 156.76977539 24.48724365 C131.7561948 24.42072655 107.0313283 23.33501077 82.18783569 20.26126099 C79.93340563 19.99204762 77.67749285 19.74977795 75.41918945 19.51538086 C65.5892556 18.49274628 55.90749136 17.13397584 46.1875 15.3125 C45.50565643 15.18538635 44.82381287 15.05827271 44.12130737 14.92730713 C28.71244622 12.02219072 14.25452732 7.53358864 0 1 C0 0.67 0 0.34 0 0 Z " fill="#21284A" transform="translate(18,215)"/>
<path d="M0 0 C3.17452631 0.51202037 6.09197021 1.35485029 9.11328125 2.421875 C13.78125145 3.98505642 18.40564833 5.07911245 23.25 5.9375 C24.17369385 6.1015332 25.0973877 6.26556641 26.04907227 6.43457031 C44.52676668 9.44585596 63.35279315 10.4961345 82 12 C82 12.33 82 12.66 82 13 C79.69 13.33 77.38 13.66 75 14 C75 14.99 75 15.98 75 17 C65.07224262 18.3242633 56.27167703 17.46944451 46.5 15.5 C45.80566864 15.36539368 45.11133728 15.23078735 44.39596558 15.09210205 C28.92204777 12.08343876 14.33091739 7.56860217 0 1 C0 0.67 0 0.34 0 0 Z " fill="#252A4B" transform="translate(18,215)"/>
<path d="M0 0 C-2.7074961 2.7074961 -5.80281035 3.45072188 -9.375 4.5625 C-10.0865625 4.78574951 -10.798125 5.00899902 -11.53125 5.23901367 C-17.64803582 7.06760925 -23.60967815 7.86686829 -30 8 C-30 7.34 -30 6.68 -30 6 C-28.35 5.34 -26.7 4.68 -25 4 C-28.27081131 2.36459435 -31.89217828 2.81948675 -35.48876953 2.79467773 C-36.36688293 2.78477814 -37.24499634 2.77487854 -38.14971924 2.76467896 C-41.06072262 2.73301726 -43.97174235 2.70828809 -46.8828125 2.68359375 C-48.89778067 2.66302825 -50.91274449 2.64203189 -52.92770386 2.62062073 C-58.23773681 2.56535829 -63.54780897 2.51596743 -68.85791016 2.46777344 C-74.27379862 2.41758885 -79.68962997 2.36188692 -85.10546875 2.30664062 C-95.73693041 2.19900803 -106.3684416 2.0975744 -117 2 C-117 1.67 -117 1.34 -117 1 C-103.81226573 0.8688029 -90.62452426 0.73835709 -77.4367733 0.60884857 C-71.31201187 0.54867804 -65.18725313 0.48825676 -59.0625 0.42724609 C-53.14268188 0.36828635 -47.22285742 0.31000661 -41.30302811 0.25218201 C-39.05381663 0.23009546 -36.80460747 0.20777122 -34.55540085 0.18519592 C-23.03660582 0.06973493 -11.51951512 -0.03986375 0 0 Z " fill="#464A65" transform="translate(268,228)"/>
<path d="M0 0 C11.5523296 -0.0462914 23.10463722 -0.08185294 34.6570406 -0.10362434 C40.02098676 -0.11407224 45.38486959 -0.12824982 50.7487793 -0.15087891 C55.92291577 -0.17257138 61.09699123 -0.18456104 66.27116966 -0.18975449 C68.24758045 -0.19345671 70.22398781 -0.200686 72.2003727 -0.21146011 C74.96348985 -0.22592722 77.72635317 -0.22797995 80.48950195 -0.22705078 C81.31093185 -0.23424133 82.13236176 -0.24143188 82.97868347 -0.24884033 C86.84913877 -0.23470835 88.70296037 -0.19802642 92 2 C91.34 2.66 90.68 3.32 90 4 C88.68 4 87.36 4 86 4 C86 4.66 86 5.32 86 6 C81.84373632 7.00926479 77.95634906 7.10239579 73.6875 7.0625 C72.43324219 7.05347656 71.17898437 7.04445312 69.88671875 7.03515625 C68.93410156 7.02355469 67.98148437 7.01195312 67 7 C67 6.67 67 6.34 67 6 C69.475 5.505 69.475 5.505 72 5 C72 4.34 72 3.68 72 3 C72.66 3 73.32 3 74 3 C74 2.34 74 1.68 74 1 C49.58 1 25.16 1 0 1 C0 0.67 0 0.34 0 0 Z " fill="#14193B" transform="translate(152,230)"/>
<path d="M0 0 C3.6875 0.4375 3.6875 0.4375 6.5625 2.625 C8.6801117 5.42772137 9.59319517 6.94822144 9.6875 10.4375 C7.6875 12.4375 7.6875 12.4375 3.875 12.875 C0.39093564 12.78615319 -0.31737378 12.4339462 -3.3125 10.25 C-5.3125 7.4375 -5.3125 7.4375 -5.75 4.75 C-5.02381095 0.91157219 -3.78779267 0.5002745 0 0 Z " fill="#292F50" transform="translate(233.3125,56.5625)"/>
<path d="M0 0 C3.87191078 -0.36875341 5.85026947 -0.07486527 9.375 1.6875 C12 4 12 4 12.375 6.75 C12.25125 7.4925 12.1275 8.235 12 9 C3.76007678 9.621881 3.76007678 9.621881 0.9375 7.3125 C-0.12196863 4.69914404 -0.23290982 2.79491785 0 0 Z " fill="#E9EBF2" transform="translate(236,103)"/>
<path d="M0 0 C5.19547406 5.19547406 4.10409436 18.41599403 4.13623047 25.55859375 C4.12021551 29.04010709 4.07251699 32.5191843 4 36 C3.67 36 3.34 36 3 36 C2.91435791 35.20303711 2.82871582 34.40607422 2.74047852 33.58496094 C2.35069934 29.9729897 1.95664815 26.36149698 1.5625 22.75 C1.36043945 20.86861328 1.36043945 20.86861328 1.15429688 18.94921875 C1.02216797 17.74394531 0.89003906 16.53867187 0.75390625 15.296875 C0.63345947 14.18666992 0.5130127 13.07646484 0.38891602 11.93261719 C0.07189849 9.54214983 -0.34702623 7.31620885 -1 5 C-2.32 4.67 -3.64 4.34 -5 4 C-3.35 2.68 -1.7 1.36 0 0 Z " fill="#41465F" transform="translate(219,352)"/>
<path d="M0 0 C3.08768679 0.498014 5.74227313 1.27677981 8.6875 2.375 C11.94717986 3.52808403 15.10374021 4.20529443 18.515625 4.6875 C19.32298096 4.80303223 20.13033691 4.91856445 20.9621582 5.03759766 C22.59868339 5.2606648 24.2380568 5.46383515 25.87963867 5.64599609 C28.18359375 5.9609375 28.18359375 5.9609375 32 7 C33.53515625 9.6015625 33.53515625 9.6015625 34 12 C28.42049392 11.38581034 23.4264619 10.00536782 18.125 8.1875 C17.33432129 7.92050293 16.54364258 7.65350586 15.72900391 7.37841797 C10.33908043 5.53142791 5.1376042 3.47366128 0 1 C0 0.67 0 0.34 0 0 Z " fill="#3F4255" transform="translate(18,215)"/>
<path d="M0 0 C4.72541224 2.29520023 7.44991713 5.49666217 10 10 C10 10.66 10 11.32 10 12 C11.32 12.33 12.64 12.66 14 13 C11.14220748 13.24218581 8.80319613 13.43570277 6 13 C3.4375 10.625 3.4375 10.625 1 8 C-1.33143892 7.0253018 -3.51420877 6.53615105 -6 6 C-6 5.67 -6 5.34 -6 5 C-4.02 4.67 -2.04 4.34 0 4 C0 2.68 0 1.36 0 0 Z " fill="#292E49" transform="translate(243,97)"/>
<path d="M0 0 C7.92 0 15.84 0 24 0 C24 0.33 24 0.66 24 1 C20.04 1 16.08 1 12 1 C12 1.99 12 2.98 12 4 C12.99 4.66 13.98 5.32 15 6 C13.24908981 5.91245449 11.49920449 5.80426627 9.75 5.6875 C8.77546875 5.62949219 7.8009375 5.57148438 6.796875 5.51171875 C3.72170503 4.9490829 2.23652952 4.15665346 0 2 C0 1.34 0 0.68 0 0 Z " fill="#CED0DD" transform="translate(323,161)"/>
<path d="M0 0 C2.62594784 0.1136515 5.25011547 0.24039054 7.875 0.375 C8.62136719 0.4059375 9.36773437 0.436875 10.13671875 0.46875 C15.7734375 0.7734375 15.7734375 0.7734375 18 3 C17.34 3.66 16.68 4.32 16 5 C16 5.33 16 5.66 16 6 C10.39538469 5.57910004 5.27913453 5.08386889 0 3 C0 2.01 0 1.02 0 0 Z " fill="#1E2544" transform="translate(49,223)"/>
<path d="M0 0 C1.134375 0.020625 2.26875 0.04125 3.4375 0.0625 C3.1075 1.0525 2.7775 2.0425 2.4375 3.0625 C1.7775 3.0625 1.1175 3.0625 0.4375 3.0625 C0.4375 4.0525 0.4375 5.0425 0.4375 6.0625 C2.9125 7.0525 2.9125 7.0525 5.4375 8.0625 C5.4375 8.7225 5.4375 9.3825 5.4375 10.0625 C1.85986811 10.38773926 0.04207419 10.49206587 -2.9375 8.375 C-4.84500465 5.66047415 -5.00153308 4.3113448 -4.5625 1.0625 C-3.5625 0.0625 -3.5625 0.0625 0 0 Z " fill="#161B39" transform="translate(232.5625,57.9375)"/>
<path d="M0 0 C0 0.66 0 1.32 0 2 C0.99 2.66 1.98 3.32 3 4 C2.67 4.66 2.34 5.32 2 6 C-0.97 5.505 -0.97 5.505 -4 5 C-4.061875 5.763125 -4.12375 6.52625 -4.1875 7.3125 C-5 10 -5 10 -7.5625 11.8125 C-8.366875 12.204375 -9.17125 12.59625 -10 13 C-9.59709958 7.35939411 -7.78085674 4.96528877 -4 1 C-2 0 -2 0 0 0 Z " fill="#282E4E" transform="translate(192,73)"/>
<path d="M0 0 C1.94566951 3.47547073 2.07637127 5.12506344 1 9 C0.34 9 -0.32 9 -1 9 C-1 9.66 -1 10.32 -1 11 C-2.65 11.66 -4.3 12.32 -6 13 C-6.33 12.01 -6.66 11.02 -7 10 C-5.56640625 7.51953125 -5.56640625 7.51953125 -3.5625 4.8125 C-2.90378906 3.91144531 -2.24507813 3.01039063 -1.56640625 2.08203125 C-1.04949219 1.39496094 -0.53257812 0.70789063 0 0 Z " fill="#272D4C" transform="translate(316,234)"/>
<path d="M0 0 C0.99 0.66 1.98 1.32 3 2 C3 2.66 3 3.32 3 4 C0.04518508 6.74375671 -0.77471908 7 -5 7 C-7.20067421 7.93283296 -7.20067421 7.93283296 -9 9 C-9 8.01 -9 7.02 -9 6 C-7.03125 4.39453125 -7.03125 4.39453125 -4.5 2.8125 C-3.6646875 2.28269531 -2.829375 1.75289063 -1.96875 1.20703125 C-0.99421875 0.60955078 -0.99421875 0.60955078 0 0 Z " fill="#282D4C" transform="translate(197,312)"/>
<path d="M0 0 C0.33 0 0.66 0 1 0 C1.1954625 2.24932227 1.38108226 4.49950142 1.5625 6.75 C1.66691406 8.00296875 1.77132813 9.2559375 1.87890625 10.546875 C1.97876723 13.39452364 1.90584295 15.34286067 1 18 C0.34 18 -0.32 18 -1 18 C-1.33 18.66 -1.66 19.32 -2 20 C-2.02688151 18.35425434 -2.04634123 16.70838587 -2.0625 15.0625 C-2.07410156 14.14597656 -2.08570313 13.22945312 -2.09765625 12.28515625 C-2 10 -2 10 -1 9 C-0.76807135 7.48530552 -0.58784762 5.96245438 -0.4375 4.4375 C-0.35371094 3.61121094 -0.26992188 2.78492188 -0.18359375 1.93359375 C-0.12300781 1.29550781 -0.06242188 0.65742188 0 0 Z " fill="#3C4160" transform="translate(2,199)"/>
<path d="M0 0 C4.455 0.99 4.455 0.99 9 2 C7 2.66666667 5 3.33333333 3 4 C3 9.61 3 15.22 3 21 C2.67 21 2.34 21 2 21 C1.66280953 18.43795456 1.33012847 15.87545682 1 13.3125 C0.90460938 12.59126953 0.80921875 11.87003906 0.7109375 11.12695312 C0.23316265 7.39007129 -0.11919794 3.77708469 0 0 Z " fill="#D5D8E7" transform="translate(204,164)"/>
<path d="M0 0 C5.44693314 -0.09688221 10.63904667 -0.12862175 16 1 C15.67 1.66 15.34 2.32 15 3 C14.01 3 13.02 3 12 3 C11.67 3.66 11.34 4.32 11 5 C9.35 5 7.7 5 6 5 C6.33 3.68 6.66 2.36 7 1 C4.69 1 2.38 1 0 1 C0 0.67 0 0.34 0 0 Z " fill="#E4E6EE" transform="translate(194,224)"/>
<path d="M0 0 C0.66 0 1.32 0 2 0 C2 2.31 2 4.62 2 7 C-3.28 6.67 -8.56 6.34 -14 6 C-14 5.67 -14 5.34 -14 5 C-9.38 5 -4.76 5 0 5 C0 3.35 0 1.7 0 0 Z " fill="#323750" transform="translate(209,218)"/>
<path d="M0 0 C2.5 1.3125 2.5 1.3125 5 3 C5 3.99 5 4.98 5 6 C3.4375 7.125 3.4375 7.125 1 8 C-2.75 7.125 -2.75 7.125 -6 6 C-6 5.67 -6 5.34 -6 5 C-4.02 4.67 -2.04 4.34 0 4 C0 2.68 0 1.36 0 0 Z " fill="#313550" transform="translate(243,97)"/>
<path d="M0 0 C4.62 0 9.24 0 14 0 C11.25046054 2.74953946 8.7649803 3.17042807 5 4 C2.0625 3.625 2.0625 3.625 0 3 C0 2.01 0 1.02 0 0 Z " fill="#52566A" transform="translate(254,228)"/>
<path d="M0 0 C0.66 1.32 1.32 2.64 2 4 C-0.25 6.0625 -0.25 6.0625 -3 8 C-5.3125 7.75 -5.3125 7.75 -7 7 C-6.01 5.68 -5.02 4.36 -4 3 C-3.34 3.33 -2.68 3.66 -2 4 C-1.34 2.68 -0.68 1.36 0 0 Z " fill="#1D2240" transform="translate(276,214)"/>
<path d="M0 0 C0.66 1.32 1.32 2.64 2 4 C1.113125 4.433125 0.22625 4.86625 -0.6875 5.3125 C-3.54429455 6.76784817 -6.27396863 8.31627474 -9 10 C-8.875 8.25 -8.875 8.25 -8 6 C-2.77777778 2 -2.77777778 2 0 2 C0 1.34 0 0.68 0 0 Z " fill="#272C49" transform="translate(172,33)"/>
<path d="M0 0 C0.66 0.33 1.32 0.66 2 1 C1.67 8.26 1.34 15.52 1 23 C0.67 23 0.34 23 0 23 C-0.19635974 19.54210946 -0.38058252 16.08367803 -0.5625 12.625 C-0.61857422 11.64015625 -0.67464844 10.6553125 -0.73242188 9.640625 C-0.80493164 8.22910156 -0.80493164 8.22910156 -0.87890625 6.7890625 C-0.9260376 5.91975098 -0.97316895 5.05043945 -1.02172852 4.15478516 C-1 2 -1 2 0 0 Z " fill="#4D526A" transform="translate(140,73)"/>
<path d="M0 0 C0.33 0.66 0.66 1.32 1 2 C1.66 2 2.32 2 3 2 C3.33 3.98 3.66 5.96 4 8 C3.01 7.67 2.02 7.34 1 7 C0.67 8.65 0.34 10.3 0 12 C-0.33 12 -0.66 12 -1 12 C-1.02712066 10.56260487 -1.04645067 9.12506137 -1.0625 7.6875 C-1.07410156 6.88699219 -1.08570313 6.08648437 -1.09765625 5.26171875 C-1 3 -1 3 0 0 Z " fill="#444863" transform="translate(202,371)"/>
<path d="M0 0 C0.66 0.66 1.32 1.32 2 2 C1.625 5.625 1.625 5.625 1 9 C0.34 8.67 -0.32 8.34 -1 8 C-1 7.01 -1 6.02 -1 5 C-2.32 4.67 -3.64 4.34 -5 4 C-3.35 2.68 -1.7 1.36 0 0 Z " fill="#333852" transform="translate(219,352)"/>
<path d="M0 0 C0.33 0.99 0.66 1.98 1 3 C0.360625 3.28875 -0.27875 3.5775 -0.9375 3.875 C-3.15206079 4.82823451 -3.15206079 4.82823451 -4 7 C-6.0625 7.625 -6.0625 7.625 -8 8 C-8.33 7.01 -8.66 6.02 -9 5 C-6.03 3.35 -3.06 1.7 0 0 Z " fill="#282F4B" transform="translate(275,271)"/>
<path d="M0 0 C-1.12451727 2.9719385 -2.22293791 5.33440687 -4 8 C-4.99 7.67 -5.98 7.34 -7 7 C-4.60526316 0 -4.60526316 0 0 0 Z " fill="#212740" transform="translate(153,51)"/>
<path d="M0 0 C0 3 0 3 -2 5.1875 C-2.66 5.785625 -3.32 6.38375 -4 7 C-4 6.34 -4 5.68 -4 5 C-4.66 5 -5.32 5 -6 5 C-6.33 4.01 -6.66 3.02 -7 2 C-4.69 1.34 -2.38 0.68 0 0 Z " fill="#292E50" transform="translate(338,478)"/>
<path d="M0 0 C2.97 0.495 2.97 0.495 6 1 C5.34 2.32 4.68 3.64 4 5 C2.35 4.67 0.7 4.34 -1 4 C-0.67 2.68 -0.34 1.36 0 0 Z " fill="#1A2042" transform="translate(210,161)"/>
<path d="M0 0 C0.33 1.32 0.66 2.64 1 4 C0.01 4 -0.98 4 -2 4 C-2.28875 4.639375 -2.5775 5.27875 -2.875 5.9375 C-4 8 -4 8 -6 9 C-6.33 8.01 -6.66 7.02 -7 6 C-4.69 4.02 -2.38 2.04 0 0 Z " fill="#2D3149" transform="translate(261,328)"/>
<path d="M0 0 C-0.33 0.99 -0.66 1.98 -1 3 C-5.455 3.495 -5.455 3.495 -10 4 C-10.33 3.34 -10.66 2.68 -11 2 C-3.375 0 -3.375 0 0 0 Z " fill="#313651" transform="translate(70,178)"/>
<path d="M0 0 C0.66 0 1.32 0 2 0 C1.125 4.875 1.125 4.875 0 6 C-2.67058851 6.14115161 -5.32432238 6.04247107 -8 6 C-8 5.67 -8 5.34 -8 5 C-4.535 4.505 -4.535 4.505 -1 4 C-0.67 2.68 -0.34 1.36 0 0 Z " fill="#3F465A" transform="translate(241,63)"/>
<path d="M0 0 C0 3 0 3 -2 5.1875 C-2.66 5.785625 -3.32 6.38375 -4 7 C-3.67 7.66 -3.34 8.32 -3 9 C-4.98 9.33 -6.96 9.66 -9 10 C-8.06409496 8.8944811 -7.12620142 7.79064547 -6.1875 6.6875 C-5.66542969 6.07261719 -5.14335937 5.45773438 -4.60546875 4.82421875 C-3.12827531 3.14575321 -1.59960869 1.56117966 0 0 Z " fill="#E4E7F2" transform="translate(160,45)"/>
<path d="M0 0 C2.97 0 5.94 0 9 0 C9 0.33 9 0.66 9 1 C6.69 1.33 4.38 1.66 2 2 C2 2.99 2 3.98 2 5 C0.35 5 -1.3 5 -3 5 C-2.67 4.01 -2.34 3.02 -2 2 C-1.34 2 -0.68 2 0 2 C0 1.34 0 0.68 0 0 Z " fill="#3C4162" transform="translate(91,227)"/>
<path d="M0 0 C0.33 0 0.66 0 1 0 C1.33 3.63 1.66 7.26 2 11 C2.66 11 3.32 11 4 11 C3.67 11.99 3.34 12.98 3 14 C2.01 14 1.02 14 0 14 C0 9.38 0 4.76 0 0 Z " fill="#C9CBDA" transform="translate(252,444)"/>
<path d="M0 0 C0.99 0.66 1.98 1.32 3 2 C0.03 3.65 -2.94 5.3 -6 7 C-6 6.01 -6 5.02 -6 4 C-5.01 4 -4.02 4 -3 4 C-2.67 3.01 -2.34 2.02 -2 1 C-1.34 0.67 -0.68 0.34 0 0 Z " fill="#282C47" transform="translate(115,446)"/>
<path d="M0 0 C0.66666667 2 1.33333333 4 2 6 C1.01 6 0.02 6 -1 6 C-2.6875 4 -2.6875 4 -4 2 C-2.68 1.34 -1.36 0.68 0 0 Z " fill="#2A2E4C" transform="translate(213,395)"/>
<path d="M0 0 C0.66 0.99 1.32 1.98 2 3 C0.68 5.31 -0.64 7.62 -2 10 C-2.66 9.01 -3.32 8.02 -4 7 C-2.68 4.69 -1.36 2.38 0 0 Z " fill="#2D324E" transform="translate(444,265)"/>
<path d="M0 0 C1.32 0.66 2.64 1.32 4 2 C2.515 4.475 2.515 4.475 1 7 C0.34 6.67 -0.32 6.34 -1 6 C-1.042721 4.33388095 -1.04063832 2.66617115 -1 1 C-0.67 0.67 -0.34 0.34 0 0 Z " fill="#353950" transform="translate(229,58)"/>
<path d="M0 0 C2.4375 0.8125 2.4375 0.8125 5 2 C5.33 2.99 5.66 3.98 6 5 C4.35 4.67 2.7 4.34 1 4 C0.67 2.68 0.34 1.36 0 0 Z " fill="#1A1E41" transform="translate(210,423)"/>
<path d="M0 0 C0.99 0.33 1.98 0.66 3 1 C2.67 1.66 2.34 2.32 2 3 C1.67 3.99 1.34 4.98 1 6 C-0.32 6 -1.64 6 -3 6 C-2 4 -1 2 0 0 Z " fill="#1B2041" transform="translate(204,420)"/>
<path d="M0 0 C-3.20336822 2.83374881 -5.78087253 3.5205537 -10 4 C-7.99220736 -0.01558529 -4.07814299 -1.359381 0 0 Z " fill="#DDE1EB" transform="translate(261,298)"/>
<path d="M0 0 C0.66 0 1.32 0 2 0 C3.04449911 3.13349732 2.93423645 3.98968256 2 7 C0.68 7 -0.64 7 -2 7 C-1.34 4.69 -0.68 2.38 0 0 Z " fill="#171D3F" transform="translate(206,157)"/>
<path d="M0 0 C2.31 0.33 4.62 0.66 7 1 C7 1.66 7 2.32 7 3 C5.02 3 3.04 3 1 3 C0.67 2.01 0.34 1.02 0 0 Z " fill="#1C223D" transform="translate(231,65)"/>
<path d="M0 0 C3.16115776 1.36983503 3.9927092 1.9890638 6 5 C4.68 5 3.36 5 2 5 C1.34 3.35 0.68 1.7 0 0 Z " fill="#2B304C" transform="translate(44,294)"/>
<path d="M0 0 C0.33 0.66 0.66 1.32 1 2 C-0.32 3.65 -1.64 5.3 -3 7 C-3.99 6.67 -4.98 6.34 -6 6 C-4.02 4.02 -2.04 2.04 0 0 Z " fill="#1C203E" transform="translate(309,245)"/>
<path d="M0 0 C2.97 0 5.94 0 9 0 C9 0.33 9 0.66 9 1 C8.030625 1.12375 7.06125 1.2475 6.0625 1.375 C4.5465625 1.684375 4.5465625 1.684375 3 2 C2.67 2.66 2.34 3.32 2 4 C1.01 3.67 0.02 3.34 -1 3 C-0.67 2.01 -0.34 1.02 0 0 Z " fill="#3A3F5F" transform="translate(77,226)"/>
<path d="M0 0 C0.66 1.32 1.32 2.64 2 4 C1.01 4.99 0.02 5.98 -1 7 C-1.625 4.625 -1.625 4.625 -2 2 C-1.34 1.34 -0.68 0.68 0 0 Z " fill="#32344D" transform="translate(25,193)"/>
<path d="M0 0 C1.98 0.495 1.98 0.495 4 1 C4 1.66 4 2.32 4 3 C3.34 3 2.68 3 2 3 C1.67 3.66 1.34 4.32 1 5 C0.34 4.67 -0.32 4.34 -1 4 C-0.67 2.68 -0.34 1.36 0 0 Z " fill="#262C4D" transform="translate(458,178)"/>
<path d="M0 0 C0.91222891 3.07877257 1.32903218 5.79193623 1 9 C-0.515625 10.65234375 -0.515625 10.65234375 -2 12 C-1.85904936 10.3745692 -1.71207913 8.74965949 -1.5625 7.125 C-1.48128906 6.22007813 -1.40007812 5.31515625 -1.31640625 4.3828125 C-1 2 -1 2 0 0 Z " fill="#BEC0D2" transform="translate(143,69)"/>
</svg>
